{
    "asset" : {
        "generator" : "Khronos glTF Blender I/O v1.5.17",
        "version" : "2.0"
    },
    "scene" : 0,
    "scenes" : [
        {
            "name" : "Scene",
            "nodes" : [
                0,
                1,
                2,
                3
            ]
        }
    ],
    "nodes" : [
        {
            "name" : "Light",
            "rotation" : [
                0.16907575726509094,
                0.7558803558349609,
                -0.27217137813568115,
                0.570947527885437
            ],
            "translation" : [
                4.076245307922363,
                5.903861999511719,
                -1.0054539442062378
            ]
        },
        {
            "name" : "Camera",
            "rotation" : [
                0.7461110949516296,
                0.0017540592234581709,
                0.001565293874591589,
                0.6658173203468323
            ],
            "translation" : [
                0.001037001609802246,
                1.600000023841858,
                -0.018528982996940613
            ]
        },
        {
            "mesh" : 0,
            "name" : "Cylinder",
            "translation" : [
                1.5,
                0,
                -2.002095937728882
            ]
        },
        {
            "mesh" : 1,
            "name" : "Cube.005",
            "translation" : [
                0,
                1,
                0
            ]
        }
    ],
    "meshes" : [
        {
            "name" : "Cylinder",
            "primitives" : [
                {
                    "attributes" : {
                        "POSITION" : 0,
                        "NORMAL" : 1,
                        "TEXCOORD_0" : 2
                    },
                    "indices" : 3
                }
            ]
        },
        {
            "name" : "Cube",
            "primitives" : [
                {
                    "attributes" : {
                        "POSITION" : 4,
                        "NORMAL" : 5,
                        "TEXCOORD_0" : 6
                    },
                    "indices" : 7
                }
            ]
        }
    ],
    "accessors" : [
        {
            "bufferView" : 0,
            "componentType" : 5126,
            "count" : 96,
            "max" : [
                0.04999995231628418,
                1,
                0.04999983310699463
            ],
            "min" : [
                -0.04999995231628418,
                0,
                -0.05000007152557373
            ],
            "type" : "VEC3"
        },
        {
            "bufferView" : 1,
            "componentType" : 5126,
            "count" : 96,
            "type" : "VEC3"
        },
        {
            "bufferView" : 2,
            "componentType" : 5126,
            "count" : 96,
            "type" : "VEC2"
        },
        {
            "bufferView" : 3,
            "componentType" : 5123,
            "count" : 180,
            "type" : "SCALAR"
        },
        {
            "bufferView" : 4,
            "componentType" : 5126,
            "count" : 102,
            "max" : [
                2.9987311363220215,
                3.4000003337860107,
                4.158392906188965
            ],
            "min" : [
                -3.8319547176361084,
                -1,
                -6.552030086517334
            ],
            "type" : "VEC3"
        },
        {
            "bufferView" : 5,
            "componentType" : 5126,
            "count" : 102,
            "type" : "VEC3"
        },
        {
            "bufferView" : 6,
            "componentType" : 5126,
            "count" : 102,
            "type" : "VEC2"
        },
        {
            "bufferView" : 7,
            "componentType" : 5123,
            "count" : 204,
            "type" : "SCALAR"
        }
    ],
    "bufferViews" : [
        {
            "buffer" : 0,
            "byteLength" : 1152,
            "byteOffset" : 0
        },
        {
            "buffer" : 0,
            "byteLength" : 1152,
            "byteOffset" : 1152
        },
        {
            "buffer" : 0,
            "byteLength" : 768,
            "byteOffset" : 2304
        },
        {
            "buffer" : 0,
            "byteLength" : 360,
            "byteOffset" : 3072
        },
        {
            "buffer" : 0,
            "byteLength" : 1224,
            "byteOffset" : 3432
        },
        {
            "buffer" : 0,
            "byteLength" : 1224,
            "byteOffset" : 4656
        },
        {
            "buffer" : 0,
            "byteLength" : 816,
            "byteOffset" : 5880
        },
        {
            "buffer" : 0,
            "byteLength" : 408,
            "byteOffset" : 6696
        }
    ],
    "buffers" : [
        {
            "byteLength" : 7104,
            "uri" : "data:application/octet-stream;base64,"
        }
    ]
}
