{
    "asset" : {
        "generator" : "Khronos glTF Blender I/O v1.5.17",
        "version" : "2.0"
    },
    "scene" : 0,
    "scenes" : [
        {
            "name" : "Scene",
            "nodes" : [
                0,
                1,
                2,
                3,
                4
            ]
        }
    ],
    "nodes" : [
        {
            "name" : "Light",
            "rotation" : [
                0.16907575726509094,
                0.7558803558349609,
                -0.27217137813568115,
                0.570947527885437
            ],
            "translation" : [
                4.076245307922363,
                5.903861999511719,
                -1.0054539442062378
            ]
        },
        {
            "name" : "Camera",
            "rotation" : [
                0.5278463959693909,
                -0.4683346450328827,
                0.5273162722587585,
                0.47326377034187317
            ],
            "translation" : [
                1.117781162261963,
                1.600000023841858,
                0.058487892150878906
            ]
        },
        {
            "mesh" : 0,
            "name" : "Cube",
            "translation" : [
                1.2024939060211182,
                0,
                0
            ]
        },
        {
            "mesh" : 1,
            "name" : "Cube.001",
            "translation" : [
                -1.2992573976516724,
                -0.011041245423257351,
                1.300432801246643
            ]
        },
        {
            "mesh" : 2,
            "name" : "Cube.002",
            "rotation" : [
                0,
                -0.7071068286895752,
                0,
                0.7071068286895752
            ],
            "translation" : [
                -1.499496579170227,
                -0.011041245423257351,
                1.300432801246643
            ]
        }
    ],
    "materials" : [
        {
            "doubleSided" : true,
            "name" : "Material.001",
            "pbrMetallicRoughness" : {
                "baseColorFactor" : [
                    0.800000011920929,
                    0.800000011920929,
                    0.800000011920929,
                    1
                ],
                "metallicFactor" : 0,
                "roughnessFactor" : 0.5
            }
        }
    ],
    "meshes" : [
        {
            "name" : "Cube.001",
            "primitives" : [
                {
                    "attributes" : {
                        "POSITION" : 0,
                        "NORMAL" : 1,
                        "TEXCOORD_0" : 2
                    },
                    "indices" : 3,
                    "material" : 0
                }
            ]
        },
        {
            "name" : "Cube.002",
            "primitives" : [
                {
                    "attributes" : {
                        "POSITION" : 4,
                        "NORMAL" : 5,
                        "TEXCOORD_0" : 6
                    },
                    "indices" : 7
                }
            ]
        },
        {
            "name" : "Cube.003",
            "primitives" : [
                {
                    "attributes" : {
                        "POSITION" : 8,
                        "NORMAL" : 9,
                        "TEXCOORD_0" : 10
                    },
                    "indices" : 7
                }
            ]
        }
    ],
    "accessors" : [
        {
            "bufferView" : 0,
            "componentType" : 5126,
            "count" : 35328,
            "max" : [
                12.764216423034668,
                4.650001525878906,
                12.764216423034668
            ],
            "min" : [
                -12.764216423034668,
                -0.10000002384185791,
                -12.764216423034668
            ],
            "type" : "VEC3"
        },
        {
            "bufferView" : 1,
            "componentType" : 5126,
            "count" : 35328,
            "type" : "VEC3"
        },
        {
            "bufferView" : 2,
            "componentType" : 5126,
            "count" : 35328,
            "type" : "VEC2"
        },
        {
            "bufferView" : 3,
            "componentType" : 5123,
            "count" : 83412,
            "type" : "SCALAR"
        },
        {
            "bufferView" : 4,
            "componentType" : 5126,
            "count" : 182,
            "max" : [
                0.10000000149011612,
                0.00827217847108841,
                0.15000000596046448
            ],
            "min" : [
                -0.10000000149011612,
                -0.00827217847108841,
                -0.10000000149011612
            ],
            "type" : "VEC3"
        },
        {
            "bufferView" : 5,
            "componentType" : 5126,
            "count" : 182,
            "type" : "VEC3"
        },
        {
            "bufferView" : 6,
            "componentType" : 5126,
            "count" : 182,
            "type" : "VEC2"
        },
        {
            "bufferView" : 7,
            "componentType" : 5123,
            "count" : 420,
            "type" : "SCALAR"
        },
        {
            "bufferView" : 8,
            "componentType" : 5126,
            "count" : 182,
            "max" : [
                0.10000000149011612,
                0.00827217847108841,
                0.15000000596046448
            ],
            "min" : [
                -0.10000000149011612,
                -0.00827217847108841,
                -0.10000000149011612
            ],
            "type" : "VEC3"
        },
        {
            "bufferView" : 9,
            "componentType" : 5126,
            "count" : 182,
            "type" : "VEC3"
        },
        {
            "bufferView" : 10,
            "componentType" : 5126,
            "count" : 182,
            "type" : "VEC2"
        }
    ],
    "bufferViews" : [
        {
            "buffer" : 0,
            "byteLength" : 423936,
            "byteOffset" : 0
        },
        {
            "buffer" : 0,
            "byteLength" : 423936,
            "byteOffset" : 423936
        },
        {
            "buffer" : 0,
            "byteLength" : 282624,
            "byteOffset" : 847872
        },
        {
            "buffer" : 0,
            "byteLength" : 166824,
            "byteOffset" : 1130496
        },
        {
            "buffer" : 0,
            "byteLength" : 2184,
            "byteOffset" : 1297320
        },
        {
            "buffer" : 0,
            "byteLength" : 2184,
            "byteOffset" : 1299504
        },
        {
            "buffer" : 0,
            "byteLength" : 1456,
            "byteOffset" : 1301688
        },
        {
            "buffer" : 0,
            "byteLength" : 840,
            "byteOffset" : 1303144
        },
        {
            "buffer" : 0,
            "byteLength" : 2184,
            "byteOffset" : 1303984
        },
        {
            "buffer" : 0,
            "byteLength" : 2184,
            "byteOffset" : 1306168
        },
        {
            "buffer" : 0,
            "byteLength" : 1456,
            "byteOffset" : 1308352
        }
    ],
    "buffers" : [
        {
            "byteLength" : 1309808,
            "uri" : "data:application/octet-stream;base64,"
        }
    ]
}
